<?xml version="1.0" encoding="utf-8"?>
<!-- Generator: Adobe Illustrator 24.0.0, SVG Export Plug-In . SVG Version: 6.00 Build 0)  -->
<svg version="1.1" id="Layer_1" xmlns="http://www.w3.org/2000/svg" xmlns:xlink="http://www.w3.org/1999/xlink" x="0px" y="0px"
	 viewBox="0 0 512 512" style="enable-background:new 0 0 512 512;" xml:space="preserve">
<style type="text/css">
	.st0{fill:#0068C4;}
	.st1{fill:#FFFFFF;}
</style>
<g>
	<g>
		<path class="st0" d="M253.2,0C150.9,0,67.8,83.2,67.8,185.4c0,126.9,165.9,313.2,173,321c6.6,7.4,18.2,7.4,24.8,0
			c7.1-7.9,173-194.1,173-321C438.6,83.2,355.4,0,253.2,0z M253.2,278.7c-51.4,0-93.3-41.9-93.3-93.3s41.9-93.3,93.3-93.3
			s93.3,41.9,93.3,93.3S304.6,278.7,253.2,278.7z"/>
	</g>
	<circle class="st0" cx="252.5" cy="182.9" r="108.6"/>
</g>
<path class="st1" d="M225,136h54.9v6.9H225V136z"/>
<g>
	<path class="st1" d="M225,156.6h54.9v6.9H225V156.6z"/>
	<path class="st1" d="M225,177.1h54.9v6.9H225V177.1z"/>
	<path class="st1" d="M225,197.7h54.9v6.9H225V197.7z"/>
	<path class="st1" d="M345,280V163.4h3.4c1.9,0,3.4-1.5,3.4-3.4v-13.7c0-1.9-1.5-3.4-3.4-3.4h-44.6v-20.6h6.9c1.9,0,3.4-1.5,3.4-3.4
		v-13.7c0-1.9-1.5-3.4-3.4-3.4h-6.9V84.6c0-1.9-1.5-3.4-3.4-3.4h-96c-1.9,0-3.4,1.5-3.4,3.4v17.1h-6.9c-1.9,0-3.4,1.5-3.4,3.4v13.7
		c0,1.9,1.5,3.4,3.4,3.4h6.9v20.6h-44.6c-1.9,0-3.4,1.5-3.4,3.4V160c0,1.9,1.5,3.4,3.4,3.4h3.4V280h-10.3v6.9h205.7V280H345z
		 M345,149.7v6.9h-41.1v-6.9H345z M207.9,88H297v13.7h-89.2V88z M197.6,108.6h109.7v6.9H197.6V108.6z M159.9,149.7H201v6.9h-41.1
		V149.7z M166.7,266.3h20.6v-6.9h-20.6v-13.7h20.6v-6.9h-20.6v-13.7h20.6v-6.9h-20.6v-13.7h20.6v-6.9h-20.6V184h20.6v-6.9h-20.6
		v-13.7H201V280h-34.3V266.3z M207.9,122.3H297V280h-17.1v-58.3c0-1.9-1.5-3.4-3.4-3.4h-48c-1.9,0-3.4,1.5-3.4,3.4V280h-17.1V122.3z
		 M231.9,225.1H249V280h-17.1V225.1z M255.9,280v-54.9H273V280H255.9z M303.9,280V163.4h34.3v13.7h-20.6v6.9h20.6v13.7h-20.6v6.9
		h20.6v13.7h-20.6v6.9h20.6v13.7h-20.6v6.9h20.6v13.7h-20.6v6.9h20.6V280H303.9z"/>
</g>
</svg>
