<?xml version="1.0" encoding="utf-8"?>
<!-- Generator: Adobe Illustrator 24.0.0, SVG Export Plug-In . SVG Version: 6.00 Build 0)  -->
<svg version="1.1" id="Layer_1" xmlns="http://www.w3.org/2000/svg" xmlns:xlink="http://www.w3.org/1999/xlink" x="0px" y="0px"
	 viewBox="0 0 512 512" style="enable-background:new 0 0 512 512;" xml:space="preserve">
<style type="text/css">
	.st0{fill:#EAB93F;}
	.st1{fill:#FFFFFF;}
</style>
<g>
	<g>
		<path class="st0" d="M253.2,0C150.9,0,67.8,83.2,67.8,185.4c0,126.9,165.9,313.2,173,321c6.6,7.4,18.2,7.4,24.8,0
			c7.1-7.9,173-194.1,173-321C438.6,83.2,355.4,0,253.2,0z M253.2,278.7c-51.4,0-93.3-41.9-93.3-93.3s41.9-93.3,93.3-93.3
			s93.3,41.9,93.3,93.3S304.6,278.7,253.2,278.7z"/>
	</g>
	<circle class="st0" cx="252.5" cy="182.9" r="108.6"/>
</g>
<g>
	<g id="Layer_5_59_">
		<g>
			<path class="st1" d="M264.2,222c-3.6,2.2-8.2,3.4-13,3.4c-4.8,0-9.4-1.2-13-3.4l-58.9-36.1c0,0-5.3-3.3-5.3,4.1
				c0,8.4,0,33.5,0,33.5c0,0.3,0,2,0,2.5c0,19,34.6,39.5,77.2,39.5s77.2-20.5,77.2-39.5c0-0.5,0-2.2,0-2.5c0,0,0-26.7,0-35.6
				c0-5.9-3.8-3-3.8-3L264.2,222z"/>
			<path class="st1" d="M349.1,157.2c4.5-2.8,4.5-7.3,0-10.1l-89.7-44.9c-4.5-2.8-11.9-2.8-16.5,0l-89.7,44.9
				c-4.5,2.8-4.5,7.3,0,10.1l89.7,55c4.5,2.8,11.9,2.8,16.5,0"/>
			<path class="st1" d="M345.4,238.7c0-15.2,0-60.8,0-60.8s0-2.9-1.7-1.9c-1.4,0.8-4.7,2.6-5.9,3.7c-1.4,1.2-1.1,3.9-1.1,3.9
				s0,41.4,0,55.2c0,0.8-0.7,1.2-1,1.3c-3.1,1.8-5.2,5.2-5.2,9c0,5.8,4.7,10.5,10.5,10.5c5.8,0,10.5-4.7,10.5-10.5
				c0-3.9-2.1-7.2-5.2-9.1C346.1,239.9,345.4,239.5,345.4,238.7z"/>
		</g>
	</g>
</g>
</svg>
