<?xml version="1.0" encoding="utf-8"?>
<!-- Generator: Adobe Illustrator 24.0.0, SVG Export Plug-In . SVG Version: 6.00 Build 0)  -->
<svg version="1.1" id="Layer_1" xmlns="http://www.w3.org/2000/svg" xmlns:xlink="http://www.w3.org/1999/xlink" x="0px" y="0px"
	 viewBox="0 0 88.9 88.9" style="enable-background:new 0 0 88.9 88.9;" xml:space="preserve">
<g>
	<path d="M85.3,27.1c-2.2-5.3-5.4-10-9.6-14.1S67,5.7,61.7,3.4C56.2,1.2,50.4,0,44.4,0S32.7,1.2,27.1,3.4C21.8,5.7,17.1,8.9,13,13
		s-7.2,8.9-9.6,14.1C1.2,32.7,0,38.4,0,44.4s1.2,11.8,3.4,17.3c2.2,5.3,5.4,10,9.6,14.1s8.8,7.3,14.1,9.6c5.6,2.2,11.3,3.4,17.3,3.4
		s11.8-1.2,17.3-3.4c5.3-2.2,10-5.4,14.1-9.6s7.2-8.9,9.6-14.1c2.2-5.6,3.4-11.3,3.4-17.3S87.7,32.7,85.3,27.1z M72.1,72.2
		c-7.3,7.3-17.2,11.4-27.7,11.4s-20.3-4.1-27.7-11.4C9.3,64.8,5.3,54.9,5.3,44.4s4.1-20.3,11.4-27.8C24.1,9.3,34,5.2,44.4,5.2
		s20.3,4.1,27.7,11.4c7.4,7.4,11.4,17.2,11.4,27.8S79.6,64.8,72.1,72.2z"/>
	<path d="M44.4,59.1c-4.3,0-10.7-0.7-17.4-3.8c-1.2-0.6-2.8-0.1-3.4,1.1l0,0c-0.7,1.3-0.1,3,1.2,3.6c7.7,3.6,14.8,4.3,19.7,4.3
		c8.2,0,14.9-2.1,19.7-4.3c1.3-0.7,1.9-2.3,1.2-3.6l0,0c-0.7-1.2-2.1-1.7-3.4-1.1C57.7,57.2,51.7,59.1,44.4,59.1z"/>
	<circle cx="30.9" cy="34.1" r="6.6"/>
	<circle cx="58" cy="34.1" r="6.6"/>
</g>
</svg>
