<?xml version="1.0" encoding="utf-8"?>
<!-- Generator: Adobe Illustrator 24.0.0, SVG Export Plug-In . SVG Version: 6.00 Build 0)  -->
<svg version="1.1" id="Layer_1" xmlns="http://www.w3.org/2000/svg" xmlns:xlink="http://www.w3.org/1999/xlink" x="0px" y="0px"
	 viewBox="0 0 88.9 88.9" style="enable-background:new 0 0 88.9 88.9;" xml:space="preserve">
<style type="text/css">
	.st0{fill:#E3E3E3;}
</style>
<circle class="st0" cx="44.4" cy="44.4" r="42.5"/>
<g>
	<path d="M85.3,27.1c-2.2-5.3-5.4-10-9.6-14.1S67,5.7,61.7,3.4C56.2,1.2,50.4,0,44.4,0S32.7,1.2,27.1,3.4C21.8,5.7,17.1,8.9,13,13
		s-7.2,8.9-9.6,14.1C1.2,32.7,0,38.4,0,44.4s1.2,11.8,3.4,17.3c2.2,5.3,5.4,10,9.6,14.1s8.8,7.3,14.1,9.6c5.6,2.2,11.3,3.4,17.3,3.4
		s11.8-1.2,17.3-3.4c5.3-2.2,10-5.4,14.1-9.6s7.2-8.9,9.6-14.1c2.2-5.6,3.4-11.3,3.4-17.3S87.7,32.7,85.3,27.1z M72.1,72.2
		c-7.3,7.3-17.2,11.4-27.7,11.4s-20.3-4.1-27.7-11.4C9.3,64.8,5.3,54.9,5.3,44.4s4.1-20.3,11.4-27.8C24.1,9.3,34,5.2,44.4,5.2
		s20.3,4.1,27.7,11.4c7.4,7.4,11.4,17.2,11.4,27.8S79.6,64.8,72.1,72.2z"/>
	<path d="M44.4,61.8c-1.1,0-10.4-0.2-17.3-7.6c-0.9-1-2.4-1.1-3.4-0.3l0,0c-1.2,0.9-1.4,2.7-0.3,3.9c3.3,3.6,7.4,6.2,12.3,7.8
		c4.3,1.4,7.9,1.6,8.9,1.6c5.9,0,11.6-1.9,16.4-5.3c2-1.3,3.6-2.8,4.7-4c1.1-1.1,0.9-2.9-0.3-3.9l0,0c-1-0.8-2.6-0.7-3.4,0.3
		C59.1,56.8,53.1,61.8,44.4,61.8z"/>
	<circle cx="30.9" cy="34.1" r="6.6"/>
	<circle cx="58" cy="34.1" r="6.6"/>
</g>
</svg>
