<svg width="39" height="39" viewBox="0 0 39 39" fill="none" xmlns="http://www.w3.org/2000/svg">
<path d="M32.8168 2.67127C32.8168 1.63217 31.9753 0.788842 30.9343 0.788842C29.8933 0.788842 29.0519 1.63217 29.0519 2.67127V6.43614C29.0519 7.47524 29.8933 7.68776 30.9343 7.68776C31.9753 7.68776 32.8168 7.47524 32.8168 6.43614V2.67127ZM10.2276 6.43614C10.2276 7.47524 9.38614 7.68776 8.34515 7.68776C7.30417 7.68776 6.46272 7.47524 6.46272 6.43614V2.67127C6.46272 1.63217 7.30417 0.788842 8.34515 0.788842C9.38614 0.788842 10.2276 1.63217 10.2276 2.67127V6.43614ZM36.9897 10.8987L37.2008 34.33C37.215 35.9103 35.9379 37.199 34.3575 37.199H4.89728C3.32692 37.199 2.05388 35.926 2.05388 34.3556V10.8987H36.9897ZM38.4641 4.5537H34.6992V6.43614C34.6992 8.51246 33.0106 9.56755 30.9343 9.56755C28.858 9.56755 27.1695 8.51246 27.1695 6.43614V4.5537H12.11V6.43614C12.11 8.51246 10.4215 9.56755 8.34515 9.56755C6.26883 9.56755 4.58029 8.51246 4.58029 6.43614V4.5537H0.81543V34.6463C0.81543 36.7401 2.5128 38.4375 4.60662 38.4375H34.6729C36.7667 38.4375 38.4641 36.7401 38.4641 34.6463V4.5537ZM13.9924 23.378H10.2276V19.6132H13.9924V23.378ZM21.5222 23.378H17.7573V19.6132H21.5222V23.378ZM29.0519 23.378H25.287V19.6132H29.0519V23.378ZM13.9924 30.9077H10.2276V27.1429H13.9924V30.9077ZM21.5222 30.9077H17.7573V27.1429H21.5222V30.9077ZM29.0519 30.9077H25.287V27.1429H29.0519V30.9077Z" fill="#333333"/>
</svg>
