<svg width="45" height="45" viewBox="0 0 45 45" fill="none" xmlns="http://www.w3.org/2000/svg">
<g clip-path="url(#clip0)">
<path d="M44.2504 1.96356e-08C44.2503 1.96356e-08 44.2501 1.96356e-08 44.25 1.96356e-08H0.75C0.335906 -9.37304e-05 9.375e-05 0.335531 0 0.749625C0 0.749719 0 0.749906 0 0.75V15.75H1.5V1.5H43.5V18H17.25V19.5H44.25C44.6641 19.5001 44.9999 19.1645 45 18.7504C45 18.7503 45 18.7501 45 18.75V0.75C45.0001 0.335906 44.6645 9.37696e-05 44.2504 1.96356e-08Z" fill="#333333"/>
<path d="M39.75 3.74994H24.75V5.24994H39.75V3.74994Z" fill="#333333"/>
<path d="M42 8.24994H27V9.74994H42V8.24994Z" fill="#333333"/>
<path d="M39 12.7499H24V14.2499H39V12.7499Z" fill="#333333"/>
<path d="M23.9401 6.46625C23.4266 5.23203 22.0098 4.64778 20.7757 5.16125C20.7546 5.17006 20.7336 5.17906 20.7128 5.18844L14.6314 8.34313C14.8713 7.84606 14.9972 7.30175 14.9999 6.74994C14.9999 4.67891 13.3209 2.99994 11.2499 2.99994C9.17885 2.99994 7.49988 4.67891 7.49988 6.74994C7.50269 7.56397 7.77297 8.35456 8.2691 8.99994H8.23788C6.109 9.01419 4.2086 10.3377 3.457 12.3296L1.45488 19.2304C0.978253 20.4685 1.5955 21.8586 2.83366 22.3352C3.39822 22.5525 4.024 22.5489 4.58603 22.3249C5.23178 22.0648 5.73428 21.5394 5.96557 20.8828L6.74988 18.3867V29.2413C6.1045 28.7453 5.31391 28.475 4.49988 28.4721C2.43194 28.469 0.752972 30.1429 0.749878 32.2109C0.748378 33.2237 1.15713 34.1938 1.88303 34.9002C0.731034 35.4887 0.00437795 36.6715 -0.000122051 37.965V44.2499C-0.000215801 44.664 0.335409 44.9998 0.749503 44.9999C0.749597 44.9999 0.749784 44.9999 0.749878 44.9999H8.24988C8.66397 45 8.99978 44.6644 8.99988 44.2503C8.99988 44.2502 8.99988 44.25 8.99988 44.2499V37.965C8.99622 36.902 8.50235 35.9002 7.6615 35.2499H13.3383C12.4974 35.9002 12.0035 36.902 12 37.965V44.2499C11.9999 44.664 12.3355 44.9998 12.7496 44.9999C12.7497 44.9999 12.7499 44.9999 12.75 44.9999H20.25C20.6641 45 20.9999 44.6644 21 44.2503C21 44.2502 21 44.25 21 44.2499V37.965C20.9955 36.6715 20.2688 35.4887 19.1168 34.9002C20.5976 33.4548 20.6264 31.0827 19.181 29.6019C18.291 28.69 16.9984 28.2929 15.75 28.5479V13.2055L22.6351 9.6305C23.8692 9.11713 24.4534 7.70038 23.9401 6.46625ZM11.2499 4.49994C12.4925 4.49994 13.4999 5.50728 13.4999 6.74994C13.4999 7.9926 12.4925 8.99994 11.2499 8.99994C10.0078 8.99863 9.00119 7.99203 8.99988 6.74994C8.99988 5.50728 10.0072 4.49994 11.2499 4.49994ZM4.49988 29.9721C5.74253 29.9721 6.74988 30.9794 6.74988 32.2221C6.74988 33.4648 5.74253 34.4721 4.49988 34.4721C3.25722 34.4721 2.24988 33.4648 2.24988 32.2221C2.25119 30.98 3.25778 29.9735 4.49988 29.9721ZM7.49988 43.4999H1.49988V37.965C1.50138 36.8803 2.38047 36.0013 3.46535 35.9999H5.53441C6.61919 36.0013 7.49838 36.8803 7.49988 37.965V43.4999ZM19.4999 37.965V43.4999H13.4999V37.965C13.5014 36.8803 14.3805 36.0013 15.4653 35.9999H17.5344C18.6193 36.0013 19.4984 36.8803 19.4999 37.965ZM16.4999 29.9721C17.742 29.9734 18.7486 30.98 18.7499 32.2221C18.7499 33.4648 17.7425 34.4721 16.4999 34.4721C15.2572 34.4721 14.2499 33.4648 14.2499 32.2221C14.2499 30.9794 15.2572 29.9721 16.4999 29.9721ZM22.5677 7.71744C22.4673 7.97506 22.2611 8.17728 22.0015 8.27263L14.6546 12.0841C14.406 12.2131 14.2499 12.4699 14.2499 12.7499V29.2413C12.845 30.2801 12.3584 32.16 13.0829 33.7499H11.9999V20.9999H10.4999V33.7499H7.91688C8.13025 33.2784 8.24266 32.7674 8.24707 32.2499H8.24988V13.4999C8.24978 13.0857 7.91388 12.7499 7.49969 12.75C7.17222 12.7501 6.88263 12.9627 6.78438 13.2751L4.54488 20.4015C4.37519 20.8695 3.85816 21.1114 3.39016 20.9416C3.35735 20.9297 3.32519 20.9159 3.29388 20.9003C2.86122 20.6767 2.67757 20.1547 2.875 19.7094L4.87703 12.8085C5.41694 11.422 6.74978 10.5064 8.23778 10.4999H13.5483C13.6684 10.5001 13.7869 10.4712 13.8936 10.4158L21.3479 6.54641C21.7951 6.35985 22.3105 6.55072 22.5282 6.98366C22.6436 7.21184 22.6579 7.4781 22.5677 7.71744Z" fill="#333333"/>
<path d="M31.1168 34.9002C32.6003 33.4549 32.6312 31.0807 31.1859 29.5973C29.7407 28.1139 27.3665 28.0829 25.8831 29.5282C24.3997 30.9734 24.3687 33.3477 25.814 34.8311C25.8368 34.8544 25.8598 34.8775 25.8832 34.9002C24.7313 35.4887 24.0045 36.6715 24 37.965V44.2499C23.9999 44.664 24.3355 44.9998 24.7496 44.9999C24.7497 44.9999 24.7499 44.9999 24.75 44.9999H32.25C32.6641 45 32.9999 44.6644 33 44.2503C33 44.2502 33 44.25 33 44.2499V37.965C32.9955 36.6715 32.2688 35.4887 31.1168 34.9002ZM28.5 29.9721C29.7427 29.9721 30.75 30.9794 30.75 32.2221C30.75 33.4648 29.7427 34.4721 28.5 34.4721C27.2573 34.4721 26.25 33.4648 26.25 32.2221C26.2513 30.98 27.2579 29.9735 28.5 29.9721ZM31.5 43.4999H25.5V37.965C25.5015 36.8803 26.3806 36.0013 27.4655 35.9999H29.5345C30.6193 36.0013 31.4985 36.8803 31.5 37.965V43.4999Z" fill="#333333"/>
<path d="M43.1168 34.9002C44.6002 33.4549 44.6312 31.0807 43.1859 29.5973C41.7407 28.1139 39.3665 28.0829 37.8831 29.5282C36.3997 30.9734 36.3687 33.3477 37.814 34.8311C37.8367 34.8544 37.8598 34.8775 37.8832 34.9002C36.7313 35.4887 36.0045 36.6715 36 37.965V44.2499C35.9999 44.664 36.3355 44.9998 36.7496 44.9999C36.7497 44.9999 36.7499 44.9999 36.75 44.9999H44.25C44.6641 45 44.9999 44.6644 45 44.2503C45 44.2502 45 44.25 45 44.2499V37.965C44.9955 36.6715 44.2688 35.4887 43.1168 34.9002ZM40.5 29.9721C41.7427 29.9721 42.75 30.9794 42.75 32.2221C42.75 33.4648 41.7427 34.4721 40.5 34.4721C39.2573 34.4721 38.25 33.4648 38.25 32.2221C38.2513 30.98 39.2579 29.9735 40.5 29.9721ZM43.5 43.4999H37.5V37.965C37.5015 36.8803 38.3806 36.0013 39.4655 35.9999H41.5345C42.6193 36.0013 43.4985 36.8803 43.5 37.965V43.4999Z" fill="#333333"/>
</g>
<defs>
<clipPath id="clip0">
<rect width="45" height="45" fill="white"/>
</clipPath>
</defs>
</svg>
