<svg width="39" height="39" viewBox="0 0 39 39" fill="none" xmlns="http://www.w3.org/2000/svg">
<path d="M38.7715 6.75931C38.6272 6.64686 38.4393 6.60714 38.2619 6.65177L25.8716 9.76517L13.4643 3.5299C13.4592 3.52737 13.4539 3.52531 13.4487 3.52294C13.4394 3.51858 13.4301 3.51423 13.4206 3.51035C13.4131 3.50727 13.4053 3.50474 13.3977 3.50197C13.388 3.49848 13.3784 3.49492 13.3685 3.49192C13.3596 3.48923 13.3505 3.48725 13.3415 3.48495C13.3327 3.48274 13.324 3.48021 13.315 3.47839C13.2971 3.47483 13.2792 3.47206 13.261 3.47016C13.2554 3.46952 13.2497 3.46944 13.244 3.46905C13.2305 3.46802 13.2171 3.46715 13.2036 3.46699C13.2017 3.46699 13.1998 3.46667 13.1979 3.46667C13.1927 3.46667 13.1876 3.46731 13.1824 3.46747C13.1706 3.46778 13.1588 3.46826 13.147 3.46929C13.1386 3.47 13.1303 3.47103 13.122 3.47213C13.1121 3.4734 13.1022 3.4749 13.0923 3.47664C13.0831 3.47831 13.0739 3.48021 13.0647 3.48226C13.0609 3.48313 13.0571 3.48369 13.0533 3.48464L0.448819 6.65169C0.185003 6.718 0 6.95523 0 7.22727V31.7358C0 31.9186 0.0842722 32.0913 0.228524 32.2038C0.372855 32.3163 0.560786 32.3559 0.738114 32.3114L13.1284 29.198L25.5357 35.4331C25.619 35.475 25.7103 35.4964 25.8022 35.4964C25.8506 35.4964 25.8992 35.4904 25.9468 35.4785L38.5512 32.3114C38.815 32.245 39 32.0078 39 31.7358V7.22727C39 7.04441 38.9157 6.87175 38.7715 6.75931ZM37.8131 31.273L25.8715 34.2736L13.4643 28.0384C13.381 27.9965 13.2897 27.9752 13.1978 27.9752C13.1494 27.9752 13.1008 27.9811 13.0532 27.9931L1.18693 30.9748V7.6901L12.6044 4.82112V9.42903C12.4887 9.31501 12.3271 9.24838 12.1508 9.25954C11.5631 9.29641 10.9947 9.40886 10.4614 9.59386C10.1518 9.70132 9.9878 10.0394 10.0952 10.3491C10.1802 10.5944 10.41 10.7482 10.6559 10.7482C10.7203 10.7482 10.7861 10.7376 10.8504 10.7153C11.2821 10.5655 11.7447 10.4743 12.2251 10.4442C12.3739 10.4348 12.506 10.3711 12.6044 10.274V25.8962C12.6044 26.224 12.87 26.4897 13.1978 26.4897C13.5257 26.4897 13.7913 26.224 13.7913 25.8962V5.02259L25.2087 10.7605V27.9594C24.9875 27.9458 24.7718 27.9226 24.5643 27.8887C24.2403 27.8357 23.9358 28.0553 23.883 28.3788C23.8302 28.7023 24.0496 29.0073 24.3731 29.0601C24.6425 29.1041 24.9227 29.1324 25.2087 29.1475V31.9731C25.2087 32.3008 25.4743 32.5665 25.8022 32.5665C26.13 32.5665 26.3956 32.3008 26.3956 31.9731V29.0276C26.5425 28.9135 26.6341 28.7327 26.6252 28.5327C26.6171 28.3517 26.5284 28.1935 26.3956 28.0904V10.8572L37.8131 7.98833V31.273ZM30.5361 24.976L29.5232 25.9887C29.412 26.1 29.3494 26.251 29.3494 26.4083C29.3494 26.5657 29.412 26.7167 29.5233 26.828L30.8733 28.1779C31.105 28.4097 31.4808 28.4097 31.7125 28.1779L32.7253 27.1651L33.7381 28.1779C33.854 28.2938 34.0059 28.3517 34.1578 28.3517C34.3096 28.3517 34.4616 28.2938 34.5774 28.1779L35.9274 26.828C36.0388 26.7167 36.1013 26.5657 36.1013 26.4083C36.1013 26.251 36.0388 26.1 35.9275 25.9887L34.9147 24.976L35.9275 23.9632C36.1593 23.7314 36.1593 23.3556 35.9275 23.1239L34.5775 21.7739C34.4662 21.6626 34.3153 21.6001 34.1578 21.6001C34.0003 21.6001 33.8495 21.6626 33.7381 21.7739L32.7253 22.7867L31.7125 21.7739C31.6012 21.6626 31.4503 21.6001 31.2929 21.6001C31.1354 21.6001 30.9846 21.6626 30.8731 21.7739L29.5231 23.1239C29.2914 23.3557 29.2914 23.7315 29.5231 23.9632L30.5361 24.976ZM31.795 24.5563L30.7822 23.5436L31.2929 23.0329L32.3056 24.0456C32.417 24.157 32.5679 24.2195 32.7253 24.2195C32.8828 24.2195 33.0336 24.157 33.145 24.0456L34.1578 23.0329L34.6685 23.5436L33.6556 24.5563C33.4239 24.7881 33.4239 25.1639 33.6556 25.3956L34.6685 26.4083L34.1578 26.919L33.145 25.9063C33.0291 25.7904 32.8772 25.7324 32.7253 25.7324C32.5735 25.7324 32.4215 25.7903 32.3056 25.9063L31.2929 26.919L30.7822 26.4083L31.795 25.3956C32.0268 25.1638 32.0268 24.788 31.795 24.5563ZM6.01166 18.4556C5.9372 18.9112 5.91148 19.1935 5.91124 19.1964C5.88355 19.5047 5.62464 19.7371 5.32078 19.7371C5.30314 19.7371 5.28541 19.7363 5.26753 19.7347C4.9412 19.7057 4.7001 19.4179 4.7289 19.0915C4.73009 19.0785 4.75794 18.7673 4.84007 18.2642C4.89293 17.9407 5.19766 17.7211 5.52145 17.7741C5.84501 17.827 6.06444 18.1321 6.01166 18.4556ZM19.7442 14.5852C20.065 14.5181 20.3795 14.7239 20.4466 15.0448C20.5526 15.5523 20.6202 16.0896 20.6533 16.6877C20.6715 17.015 20.4209 17.2949 20.0937 17.313C20.0825 17.3137 20.0714 17.314 20.0603 17.314C19.7476 17.314 19.4858 17.0695 19.4683 16.7534C19.4385 16.2154 19.3784 15.736 19.2847 15.2875C19.2176 14.9667 19.4234 14.6523 19.7442 14.5852ZM9.09626 10.9615C9.3175 11.2034 9.30073 11.5788 9.05883 11.8C8.72214 12.108 8.4023 12.4726 8.10825 12.8835C7.99241 13.0454 7.8101 13.1317 7.62517 13.1317C7.50561 13.1317 7.38494 13.0957 7.28033 13.0209C7.01382 12.8301 6.95226 12.4594 7.14304 12.1929C7.48504 11.7148 7.86019 11.2879 8.25789 10.9242C8.49955 10.7029 8.87501 10.7196 9.09626 10.9615ZM20.6259 19.107C20.601 19.5275 20.5695 19.9462 20.5392 20.351L20.5146 20.68C20.4915 20.9921 20.2313 21.2299 19.9233 21.2299C19.9086 21.2299 19.8939 21.2294 19.879 21.2283C19.5521 21.2041 19.3067 20.9196 19.3308 20.5928L19.3555 20.2623C19.3855 19.862 19.4165 19.4481 19.4409 19.0368C19.4602 18.7096 19.7411 18.4599 20.0685 18.4795C20.3958 18.4988 20.6453 18.7798 20.6259 19.107ZM7.03851 14.8273C6.85026 15.2705 6.678 15.747 6.52647 16.2436C6.44845 16.4994 6.2132 16.664 5.95904 16.664C5.90159 16.664 5.84335 16.6556 5.78566 16.638C5.47216 16.5423 5.29554 16.2107 5.39121 15.8972C5.55485 15.3608 5.74159 14.8448 5.94606 14.3633C6.07425 14.0616 6.42281 13.921 6.72429 14.049C7.02593 14.1772 7.16662 14.5256 7.03851 14.8273ZM22.7817 27.9729C22.6676 28.1459 22.4785 28.2397 22.2857 28.2397C22.1735 28.2397 22.0601 28.208 21.9594 28.1416C21.4792 27.8248 21.0454 27.4316 20.6704 26.9731C20.4628 26.7194 20.5002 26.3455 20.7539 26.138C21.0074 25.9306 21.3816 25.9678 21.589 26.2215C21.8883 26.5873 22.2328 26.9 22.613 27.1507C22.8866 27.3312 22.9622 27.6992 22.7817 27.9729ZM20.1828 25.1105C20.1303 25.1249 20.0774 25.1318 20.0256 25.1318C19.7648 25.1318 19.5258 24.9586 19.4536 24.695C19.3231 24.2188 19.2516 23.6647 19.235 23.0011C19.2267 22.6734 19.4858 22.4011 19.8135 22.3929C20.1393 22.3861 20.4134 22.6437 20.4217 22.9714C20.4358 23.5378 20.4936 23.9989 20.5983 24.3812C20.6848 24.6973 20.4989 25.0238 20.1828 25.1105ZM19.331 13.4903C19.2326 13.5526 19.1228 13.5823 19.0143 13.5823C18.8176 13.5823 18.6251 13.4846 18.5122 13.306C18.2642 12.9141 17.9599 12.5563 17.6074 12.2425C17.3625 12.0245 17.3409 11.6493 17.5588 11.4046C17.7768 11.1598 18.1519 11.1381 18.3967 11.356C18.8318 11.7434 19.2081 12.186 19.5152 12.6716C19.6905 12.9485 19.608 13.3151 19.331 13.4903ZM16.5546 10.8064C16.4596 11.0343 16.239 11.1717 16.0066 11.1717C15.9305 11.1717 15.8531 11.157 15.7785 11.1259C15.6109 11.056 15.4346 10.9891 15.2547 10.9268C14.9567 10.8238 14.6611 10.7358 14.3761 10.6651C14.0579 10.5863 13.8638 10.2645 13.9427 9.9463C14.0216 9.62812 14.3437 9.43434 14.6615 9.51299C14.9809 9.59212 15.3109 9.6904 15.6424 9.8049C15.8455 9.87508 16.0449 9.95089 16.235 10.0302C16.5377 10.1564 16.6808 10.5039 16.5546 10.8064ZM27.7929 28.3335C27.703 28.0184 27.8857 27.69 28.2009 27.6001C28.6261 27.4789 28.8869 27.3732 28.8895 27.3722C29.1926 27.2487 29.5391 27.394 29.663 27.697C29.7869 28.0002 29.6423 28.3462 29.3394 28.4705C29.3267 28.4757 29.0209 28.6005 28.5263 28.7415C28.4719 28.757 28.4172 28.7645 28.3633 28.7645C28.105 28.7645 27.8674 28.5944 27.7929 28.3335Z" fill="black"/>
</svg>
