<svg width="41" height="39" viewBox="0 0 41 39" fill="none" xmlns="http://www.w3.org/2000/svg">
<path fill-rule="evenodd" clip-rule="evenodd" d="M4.7805 24.3763C4.13381 24.3756 3.5138 24.1184 3.05652 23.6611C2.59928 23.2038 2.34207 22.5839 2.34131 21.9373V17.0626C2.34207 16.416 2.59928 15.7961 3.05652 15.3388C3.51373 14.8816 4.13359 14.6244 4.78016 14.6236H12.0927C12.7444 14.6236 13.7965 14.4365 15.0594 14.0866C16.3299 13.7346 17.8359 13.2116 19.4032 12.5257C21.9492 11.4115 25.5135 9.50567 28.1569 6.70778L28.2397 6.6201V6.09404C28.2404 5.52813 28.4655 4.98558 28.8656 4.58542C29.2657 4.18534 29.8081 3.96026 30.3739 3.95953C30.9397 3.96026 31.4821 4.18534 31.8822 4.58542C32.2824 4.98558 32.5074 5.52813 32.5081 6.09404V32.9062C32.5081 33.4722 32.2832 34.0151 31.883 34.4153C31.4828 34.8155 30.9399 35.0404 30.3739 35.0404C29.8079 35.0404 29.2651 34.8155 28.8648 34.4153C28.4646 34.0151 28.2397 33.4722 28.2397 32.9062V32.3801L28.1569 32.2924C25.5135 29.4945 21.9492 27.5887 19.4032 26.4745C16.7712 25.3227 14.3037 24.6268 12.8325 24.4331L12.5643 24.3977L10.8571 31.2262C10.824 31.3584 10.7478 31.4757 10.6404 31.5595C10.533 31.6433 10.4007 31.6888 10.2645 31.6888H7.21766C7.05569 31.6888 6.90035 31.6245 6.78581 31.5099C6.67128 31.3954 6.60693 31.2401 6.60693 31.0781V24.3763H4.7805ZM4.78046 23.1548C4.45778 23.1545 4.14779 23.0262 3.91962 22.798C3.69145 22.5698 3.56312 22.2605 3.56277 21.9378L3.56277 17.0625C3.56312 16.7398 3.69145 16.4301 3.91962 16.2019C4.14779 15.9737 4.45716 15.8454 4.77983 15.8451L6.60693 15.8451V23.1548H4.78046ZM11.4819 23.1548V15.8451H7.82839V23.1548H11.4819ZM9.78772 30.4673L11.3105 24.3763H7.82839V30.4673H9.78772ZM12.7034 23.1878L12.9667 23.2229C16.1287 23.644 22.9833 26.0026 27.7358 30.1925L28.2397 30.6368V8.36312L27.7358 8.80739C22.9833 12.9973 16.1287 15.3559 12.9667 15.777L12.7034 15.8121V23.1878ZM31.0193 33.5516C31.1905 33.3804 31.2866 33.1483 31.2866 32.9062V6.0937C31.2866 5.85163 31.1905 5.61948 31.0193 5.44832C30.8481 5.27715 30.616 5.18099 30.3739 5.18099C30.1319 5.18099 29.8997 5.27715 29.7285 5.44832C29.5574 5.61948 29.4612 5.85163 29.4612 6.0937V32.9062C29.4612 33.1483 29.5574 33.3804 29.7285 33.5516C29.8997 33.7227 30.1319 33.8189 30.3739 33.8189C30.616 33.8189 30.8481 33.7227 31.0193 33.5516Z" fill="black"/>
<path d="M34.9634 13.5094C34.8251 13.5095 34.6909 13.4627 34.5825 13.3764C34.4742 13.2901 34.3985 13.1696 34.3676 13.0346C34.3368 12.8996 34.3528 12.7581 34.4129 12.6334C34.4731 12.5087 34.5738 12.4081 34.6986 12.3481L37.4447 11.0277C37.5906 10.9575 37.7585 10.9482 37.9114 11.0018C38.0642 11.0554 38.1895 11.1675 38.2597 11.3135C38.3299 11.4595 38.3393 11.6273 38.2857 11.7802C38.2321 11.9331 38.1199 12.0584 37.974 12.1285L35.2278 13.4488C35.1456 13.4885 35.0547 13.5094 34.9634 13.5094Z" fill="black"/>
<path d="M34.7005 26.6528L34.6997 26.6524C34.5552 26.5815 34.4446 26.4564 34.3919 26.3043C34.339 26.1519 34.3486 25.9848 34.4185 25.8395C34.4883 25.6942 34.6129 25.5824 34.7649 25.5285C34.9165 25.4748 35.0832 25.4831 35.2288 25.5515L35.2298 25.552L37.9739 26.8714C38.1199 26.9416 38.232 27.0669 38.2856 27.2197C38.3392 27.3726 38.3298 27.5405 38.2596 27.6865C38.1894 27.8324 38.0641 27.9446 37.9113 27.9982C37.7584 28.0517 37.5905 28.0424 37.4446 27.9722L34.7005 26.6528Z" fill="black"/>
<path d="M36.4677 18.8892H39.5145C39.6765 18.8892 39.8319 18.9536 39.9464 19.0681C40.0609 19.1826 40.1253 19.338 40.1253 19.5C40.1253 19.6619 40.0609 19.8173 39.9464 19.9318C39.8319 20.0463 39.6765 20.1107 39.5145 20.1107H36.4677C36.3057 20.1107 36.1503 20.0463 36.0358 19.9318C35.9213 19.8173 35.8569 19.6619 35.8569 19.5C35.8569 19.338 35.9213 19.1826 36.0358 19.0681C36.1503 18.9536 36.3057 18.8892 36.4677 18.8892Z" fill="black"/>
</svg>
