<svg width="45" height="45" viewBox="0 0 45 45" fill="none" xmlns="http://www.w3.org/2000/svg">
<path d="M42.4526 15.75C42.6716 15.75 42.8816 15.671 43.0364 15.5303C43.1912 15.3897 43.2782 15.1989 43.2782 15V10.5C43.2769 9.5058 42.8416 8.55267 42.0677 7.84966C41.2939 7.14666 40.2447 6.75119 39.1504 6.75H25.1158V3.75C25.1145 2.7558 24.6792 1.80267 23.9053 1.09966C23.1315 0.396661 22.0823 0.00119089 20.988 0H6.12782C5.03346 0.00119089 3.98429 0.396661 3.21046 1.09966C2.43663 1.80267 2.00131 2.7558 2 3.75V12C2.00131 12.9942 2.43663 13.9473 3.21046 14.6503C3.98429 15.3533 5.03346 15.7488 6.12782 15.75H7.31168L9.54813 19.1362C9.62153 19.2471 9.72525 19.3389 9.84923 19.4026C9.9732 19.4663 10.1132 19.4998 10.2556 19.4998C10.3981 19.4998 10.5381 19.4663 10.662 19.4026C10.786 19.3389 10.8898 19.2471 10.9631 19.1362L13.1996 15.75H17.6857C17.9047 15.75 18.1147 15.671 18.2695 15.5303C18.4243 15.3897 18.5113 15.1989 18.5113 15C18.5113 14.8011 18.4243 14.6103 18.2695 14.4697C18.1147 14.329 17.9047 14.25 17.6857 14.25H12.7323C12.5899 14.25 12.4499 14.2835 12.3259 14.3473C12.2019 14.411 12.0982 14.5028 12.0248 14.6138L10.2556 17.292L8.48645 14.6138C8.41309 14.5028 8.30938 14.411 8.1854 14.3473C8.06142 14.2835 7.9214 14.25 7.77895 14.25H6.12782C5.47096 14.25 4.841 14.0129 4.37653 13.591C3.91206 13.169 3.65113 12.5967 3.65113 12V3.75C3.65113 3.15326 3.91206 2.58097 4.37653 2.15901C4.841 1.73705 5.47096 1.5 6.12782 1.5H20.988C21.6448 1.5 22.2748 1.73705 22.7393 2.15901C23.2037 2.58097 23.4647 3.15326 23.4647 3.75V6.825C22.5329 6.99907 21.6958 7.45964 21.0942 8.12906C20.4927 8.79849 20.1636 9.63585 20.1624 10.5V18C20.1637 18.9942 20.599 19.9473 21.3729 20.6503C22.1467 21.3533 23.1959 21.7488 24.2902 21.75H30.2186L30.7139 24H26.7669C26.548 24 26.338 24.079 26.1832 24.2197C26.0283 24.3603 25.9413 24.5511 25.9413 24.75C25.9413 24.9489 26.0283 25.1397 26.1832 25.2803C26.338 25.421 26.548 25.5 26.7669 25.5H33.3714C34.0283 25.5 34.6582 25.7371 35.1227 26.159C35.5872 26.581 35.8481 27.1533 35.8481 27.75C35.8481 28.3467 35.5872 28.919 35.1227 29.341C34.6582 29.7629 34.0283 30 33.3714 30H30.0692C29.4123 30 28.7824 29.7629 28.3179 29.341C27.8534 28.919 27.5925 28.3467 27.5925 27.75C27.5925 27.5511 27.5055 27.3603 27.3507 27.2197C27.1959 27.079 26.9859 27 26.7669 27C26.548 27 26.338 27.079 26.1832 27.2197C26.0283 27.3603 25.9413 27.5511 25.9413 27.75C25.9432 28.3291 26.0934 28.8999 26.3799 29.4172C26.6665 29.9345 27.0816 30.3841 27.5925 30.7305V30.75C27.5955 31.5641 27.8931 32.3547 28.4395 33H28.418C27.1047 33.0012 25.8456 33.4757 24.9169 34.3193C23.9883 35.163 23.466 36.3069 23.4647 37.5V44.25C23.4647 44.4489 23.5516 44.6397 23.7065 44.7803C23.8613 44.921 24.0713 45 24.2902 45C24.5092 45 24.7192 44.921 24.874 44.7803C25.0288 44.6397 25.1158 44.4489 25.1158 44.25V37.5C25.1158 36.7043 25.4637 35.9413 26.083 35.3787C26.7023 34.8161 27.5422 34.5 28.418 34.5H35.0226C35.8984 34.5 36.7383 34.8161 37.3576 35.3787C37.9769 35.9413 38.3248 36.7043 38.3248 37.5V44.25C38.3248 44.4489 38.4118 44.6397 38.5666 44.7803C38.7214 44.921 38.9314 45 39.1504 45C39.3693 45 39.5793 44.921 39.7341 44.7803C39.889 44.6397 39.9759 44.4489 39.9759 44.25V37.5C39.9746 36.3069 39.4523 35.163 38.5237 34.3193C37.595 33.4757 36.3359 33.0012 35.0226 33H35.0011C35.5475 32.3547 35.8451 31.5641 35.8481 30.75V30.7305C36.5367 30.2633 37.0467 29.6117 37.3064 28.8674C37.5661 28.1231 37.5624 27.3236 37.2958 26.5814C37.0293 25.8391 36.5133 25.1914 35.8204 24.7294C35.1276 24.2675 34.2927 24.0145 33.4333 24.006L35.4188 21.75H39.1504C40.2447 21.7488 41.2939 21.3533 42.0677 20.6503C42.8416 19.9473 43.2769 18.9942 43.2782 18C43.2782 17.8011 43.1912 17.6103 43.0364 17.4697C42.8816 17.329 42.6716 17.25 42.4526 17.25C42.2337 17.25 42.0237 17.329 41.8689 17.4697C41.714 17.6103 41.6271 17.8011 41.6271 18C41.6271 18.5967 41.3661 19.169 40.9017 19.591C40.4372 20.0129 39.8072 20.25 39.1504 20.25H35.0226C34.8987 20.25 34.7765 20.2752 34.6649 20.3239C34.5533 20.3726 34.4552 20.4434 34.3778 20.5312L32.1826 23.025L31.7038 20.85C31.6657 20.6806 31.5644 20.5283 31.417 20.419C31.2695 20.3097 31.0851 20.25 30.8947 20.25H24.2902C23.6334 20.25 23.0034 20.0129 22.5389 19.591C22.0745 19.169 21.8135 18.5967 21.8135 18V10.5C21.8135 9.90326 22.0745 9.33097 22.5389 8.90901C23.0034 8.48705 23.6334 8.25 24.2902 8.25H39.1504C39.8072 8.25 40.4372 8.48705 40.9017 8.90901C41.3661 9.33097 41.6271 9.90326 41.6271 10.5V15C41.6271 15.1989 41.714 15.3897 41.8689 15.5303C42.0237 15.671 42.2337 15.75 42.4526 15.75ZM31.7203 33C31.1974 32.9984 30.6885 32.8462 30.2669 32.5652C29.8453 32.2842 29.5327 31.8889 29.374 31.4363C29.6033 31.4754 29.8359 31.4967 30.0692 31.5H33.3714C33.6047 31.4967 33.8373 31.4754 34.0665 31.4363C33.9079 31.8889 33.5953 32.2842 33.1737 32.5652C32.7521 32.8462 32.2432 32.9984 31.7203 33Z" fill="#333333"/>
<path d="M27.5924 39.75C27.3735 39.75 27.1635 39.829 27.0086 39.9697C26.8538 40.1103 26.7668 40.3011 26.7668 40.5V44.25C26.7668 44.4489 26.8538 44.6397 27.0086 44.7803C27.1635 44.921 27.3735 45 27.5924 45C27.8114 45 28.0213 44.921 28.1762 44.7803C28.331 44.6397 28.418 44.4489 28.418 44.25V40.5C28.418 40.3011 28.331 40.1103 28.1762 39.9697C28.0213 39.829 27.8114 39.75 27.5924 39.75Z" fill="#333333"/>
<path d="M35.8483 39.75C35.6293 39.75 35.4193 39.829 35.2645 39.9697C35.1097 40.1103 35.0227 40.3011 35.0227 40.5V44.25C35.0227 44.4489 35.1097 44.6397 35.2645 44.7803C35.4193 44.921 35.6293 45 35.8483 45C36.0672 45 36.2772 44.921 36.432 44.7803C36.5869 44.6397 36.6738 44.4489 36.6738 44.25V40.5C36.6738 40.3011 36.5869 40.1103 36.432 39.9697C36.2772 39.829 36.0672 39.75 35.8483 39.75Z" fill="#333333"/>
<path d="M4.47693 37.5C4.25798 37.5 4.04799 37.579 3.89317 37.7197C3.73835 37.8603 3.65137 38.0511 3.65137 38.25V44.25C3.65137 44.4489 3.73835 44.6397 3.89317 44.7803C4.04799 44.921 4.25798 45 4.47693 45C4.69588 45 4.90587 44.921 5.06069 44.7803C5.21552 44.6397 5.3025 44.4489 5.3025 44.25V38.25C5.3025 38.0511 5.21552 37.8603 5.06069 37.7197C4.90587 37.579 4.69588 37.5 4.47693 37.5Z" fill="#333333"/>
<path d="M15.2093 30.75H15.1878C15.7342 30.1047 16.0318 29.3141 16.0348 28.5V27.7313C16.7281 27.2608 17.2403 26.6037 17.4988 25.8535C17.7572 25.1032 17.7487 24.298 17.4744 23.5525C17.2 22.8069 16.6739 22.1589 15.9708 21.7006C15.2677 21.2424 14.4235 20.9972 13.5581 21H10.2559C9.39056 20.9972 8.5463 21.2424 7.84321 21.7006C7.14011 22.1589 6.61398 22.8069 6.33966 23.5525C6.06533 24.298 6.05678 25.1032 6.31523 25.8535C6.57367 26.6037 7.08595 27.2608 7.77919 27.7313V28.5C7.78222 29.3141 8.07985 30.1047 8.62621 30.75H8.60475C7.29143 30.7512 6.03228 31.2257 5.10363 32.0694C4.17497 32.913 3.65268 34.0569 3.65137 35.25C3.65137 35.4489 3.73835 35.6397 3.89317 35.7804C4.04799 35.921 4.25798 36 4.47693 36C4.69588 36 4.90587 35.921 5.06069 35.7804C5.21552 35.6397 5.30249 35.4489 5.30249 35.25C5.30249 34.4544 5.65041 33.6913 6.2697 33.1287C6.889 32.5661 7.72894 32.25 8.60475 32.25H9.43031V33C9.43036 33.1027 9.45361 33.2043 9.49863 33.2984C9.54365 33.3926 9.60947 33.4774 9.69202 33.5475L11.4579 35.0475C11.6108 35.1776 11.8123 35.2499 12.0218 35.25H12.0507C12.2705 35.2427 12.4782 35.1567 12.6285 35.0108L14.1649 33.5108C14.3062 33.3717 14.3843 33.1893 14.3837 33V32.25H15.2093C16.0851 32.25 16.925 32.5661 17.5443 33.1287C18.1636 33.6913 18.5115 34.4544 18.5115 35.25V44.25C18.5115 44.4489 18.5985 44.6397 18.7533 44.7804C18.9081 44.921 19.1181 45 19.3371 45C19.556 45 19.766 44.921 19.9208 44.7804C20.0757 44.6397 20.1626 44.4489 20.1626 44.25V35.25C20.1613 34.0569 19.639 32.913 18.7104 32.0694C17.7817 31.2257 16.5226 30.7512 15.2093 30.75ZM9.43031 28.5V27C9.43031 26.6022 9.60427 26.2207 9.91392 25.9394C10.2236 25.6581 10.6435 25.5 11.0814 25.5H12.7326C13.1705 25.5 13.5904 25.6581 13.9001 25.9394C14.2097 26.2207 14.3837 26.6022 14.3837 27V28.5C14.3837 29.0968 14.1228 29.6691 13.6583 30.091C13.1938 30.513 12.5639 30.75 11.907 30.75C11.2501 30.75 10.6202 30.513 10.1557 30.091C9.69125 29.6691 9.43031 29.0968 9.43031 28.5ZM10.2559 22.5H13.5581C14.215 22.5 14.8449 22.7371 15.3094 23.159C15.7739 23.581 16.0348 24.1533 16.0348 24.75C16.0351 25.1104 15.9349 25.4649 15.7434 25.7805C15.4843 25.2514 15.0621 24.8017 14.5278 24.4858C13.9936 24.1698 13.3701 24.0011 12.7326 24H11.0814C10.4434 24.001 9.81935 24.1699 9.28474 24.4863C8.75012 24.8027 8.32784 25.253 8.06896 25.7828C7.8785 25.4661 7.77885 25.1109 7.77919 24.75C7.77919 24.1533 8.04012 23.581 8.50459 23.159C8.96906 22.7371 9.59902 22.5 10.2559 22.5ZM11.9813 33.4388L11.0814 32.6745V32.175C11.6262 32.276 12.1878 32.276 12.7326 32.175V32.7053L11.9813 33.4388Z" fill="#333333"/>
<path d="M7.77893 37.5C7.55998 37.5 7.34999 37.579 7.19517 37.7197C7.04035 37.8603 6.95337 38.0511 6.95337 38.25V44.25C6.95337 44.4489 7.04035 44.6397 7.19517 44.7803C7.34999 44.921 7.55998 45 7.77893 45C7.99789 45 8.20787 44.921 8.3627 44.7803C8.51752 44.6397 8.6045 44.4489 8.6045 44.25V38.25C8.6045 38.0511 8.51752 37.8603 8.3627 37.7197C8.20787 37.579 7.99789 37.5 7.77893 37.5Z" fill="#333333"/>
<path d="M16.0345 37.5C15.8156 37.5 15.6056 37.579 15.4508 37.7197C15.296 37.8603 15.209 38.0511 15.209 38.25V44.25C15.209 44.4489 15.296 44.6397 15.4508 44.7803C15.6056 44.921 15.8156 45 16.0345 45C16.2535 45 16.4635 44.921 16.6183 44.7803C16.7731 44.6397 16.8601 44.4489 16.8601 44.25V38.25C16.8601 38.0511 16.7731 37.8603 16.6183 37.7197C16.4635 37.579 16.2535 37.5 16.0345 37.5Z" fill="#333333"/>
<path d="M11.9069 37.5C12.3628 37.5 12.7324 37.1642 12.7324 36.75C12.7324 36.3358 12.3628 36 11.9069 36C11.4509 36 11.0813 36.3358 11.0813 36.75C11.0813 37.1642 11.4509 37.5 11.9069 37.5Z" fill="#333333"/>
<path d="M11.9069 40.5C12.3628 40.5 12.7324 40.1642 12.7324 39.75C12.7324 39.3358 12.3628 39 11.9069 39C11.4509 39 11.0813 39.3358 11.0813 39.75C11.0813 40.1642 11.4509 40.5 11.9069 40.5Z" fill="#333333"/>
<path d="M12.7325 6.00003C12.7327 5.56095 12.6267 5.12718 12.4222 4.72936C12.2176 4.33154 11.9195 3.97936 11.5487 3.69769C11.1779 3.41601 10.7436 3.2117 10.2765 3.09919C9.80927 2.98668 9.3206 2.9687 8.84493 3.04653C8.18222 3.15858 7.57256 3.45074 7.09657 3.88437C6.62058 4.31799 6.30068 4.87267 6.17918 5.47503C6.02739 6.24331 6.2142 7.03501 6.69929 7.67928C6.83533 7.84844 6.91913 8.04756 6.942 8.25603C6.73673 8.27403 6.54631 8.36117 6.40821 8.5003C6.27011 8.63943 6.19433 8.82049 6.19578 9.00783C6.19723 9.19517 6.2758 9.37524 6.41604 9.51259C6.55628 9.64995 6.74803 9.73465 6.95356 9.75003V10.4198C6.94593 10.9621 7.14849 11.4897 7.5258 11.9101C7.90311 12.3304 8.43114 12.6169 9.01747 12.7193C9.37268 12.7738 9.7367 12.7573 10.0842 12.6709C10.4316 12.5845 10.7542 12.4303 11.0293 12.219C11.3044 12.0077 11.5254 11.7444 11.677 11.4475C11.8286 11.1507 11.9071 10.8273 11.9069 10.5V9.75003C12.1138 9.73805 12.3081 9.65581 12.4513 9.51965C12.5945 9.38349 12.6761 9.20338 12.6799 9.01509C12.6836 8.82681 12.6092 8.64414 12.4715 8.50337C12.3339 8.3626 12.1429 8.27404 11.9367 8.25528C11.9754 8.02219 12.0701 7.79969 12.2141 7.60353C12.5526 7.12529 12.7326 6.56865 12.7325 6.00003ZM7.80554 5.73003C7.86847 5.43235 8.02781 5.15853 8.26315 4.94367C8.49849 4.7288 8.7991 4.58268 9.12645 4.52403C9.2268 4.50836 9.32842 4.50033 9.43025 4.50003C9.81848 4.49858 10.1945 4.62334 10.4903 4.85178C10.6754 4.99217 10.8242 5.16778 10.9264 5.36619C11.0285 5.56461 11.0814 5.78098 11.0814 6.00003C11.0816 6.28145 10.9924 6.55696 10.8246 6.79353C10.5042 7.22733 10.3128 7.7291 10.269 8.25003H8.59974C8.57696 7.73915 8.39045 7.24545 8.06312 6.82953C7.94252 6.67073 7.85768 6.49184 7.81347 6.30314C7.76927 6.11445 7.76657 5.91967 7.80554 5.73003ZM10.2558 10.5C10.2558 10.6088 10.2297 10.7162 10.1793 10.8149C10.129 10.9136 10.0557 11.0012 9.96439 11.0715C9.87149 11.1426 9.76267 11.1945 9.64547 11.2235C9.52828 11.2525 9.40554 11.258 9.28578 11.2395C9.08583 11.1948 8.90895 11.0889 8.7849 10.9396C8.66085 10.7903 8.5972 10.6067 8.60469 10.4198V9.75003H10.2558V10.5Z" fill="#333333"/>
<path d="M20.988 6C21.207 6 21.417 5.92098 21.5718 5.78033C21.7266 5.63968 21.8136 5.44891 21.8136 5.25C21.8136 5.05109 21.7266 4.86032 21.5718 4.71967C21.417 4.57902 21.207 4.5 20.988 4.5H16.8602C16.6413 4.5 16.4313 4.57902 16.2765 4.71967C16.1216 4.86032 16.0347 5.05109 16.0347 5.25C16.0347 5.44891 16.1216 5.63968 16.2765 5.78033C16.4313 5.92098 16.6413 6 16.8602 6H20.988Z" fill="#333333"/>
<path d="M14.3838 8.25C14.3838 8.44891 14.4708 8.63968 14.6256 8.78033C14.7804 8.92098 14.9904 9 15.2094 9H18.5116C18.7306 9 18.9405 8.92098 19.0954 8.78033C19.2502 8.63968 19.3372 8.44891 19.3372 8.25C19.3372 8.05109 19.2502 7.86032 19.0954 7.71967C18.9405 7.57902 18.7306 7.5 18.5116 7.5H15.2094C14.9904 7.5 14.7804 7.57902 14.6256 7.71967C14.4708 7.86032 14.3838 8.05109 14.3838 8.25Z" fill="#333333"/>
<path d="M13.5579 11.25C13.5579 11.4489 13.6448 11.6397 13.7997 11.7803C13.9545 11.921 14.1645 12 14.3834 12H17.6857C17.9046 12 18.1146 11.921 18.2694 11.7803C18.4243 11.6397 18.5112 11.4489 18.5112 11.25C18.5112 11.0511 18.4243 10.8603 18.2694 10.7197C18.1146 10.579 17.9046 10.5 17.6857 10.5H14.3834C14.1645 10.5 13.9545 10.579 13.7997 10.7197C13.6448 10.8603 13.5579 11.0511 13.5579 11.25Z" fill="#333333"/>
<path d="M30.0692 18C30.5252 18 30.8948 17.6642 30.8948 17.25C30.8948 16.8358 30.5252 16.5 30.0692 16.5C29.6133 16.5 29.2437 16.8358 29.2437 17.25C29.2437 17.6642 29.6133 18 30.0692 18Z" fill="#333333"/>
<path d="M30.8948 14.1218C31.3229 13.9843 31.7011 13.7426 31.9881 13.423C32.2752 13.1034 32.46 12.7183 32.5224 12.3097C32.5848 11.9011 32.5224 11.4849 32.3419 11.1064C32.1615 10.7278 31.87 10.4017 31.4993 10.1635C31.1286 9.92532 30.693 9.7843 30.24 9.75585C29.7871 9.7274 29.3342 9.81261 28.931 10.0022C28.5278 10.1917 28.1896 10.4784 27.9536 10.8307C27.7175 11.1831 27.5926 11.5876 27.5925 12.0001C27.5925 12.199 27.6795 12.3897 27.8343 12.5304C27.9892 12.671 28.1991 12.7501 28.4181 12.7501C28.637 12.7501 28.847 12.671 29.0019 12.5304C29.1567 12.3897 29.2437 12.199 29.2437 12.0001C29.2437 11.8517 29.2921 11.7067 29.3828 11.5834C29.4735 11.46 29.6024 11.3639 29.7533 11.3071C29.9041 11.2504 30.0701 11.2355 30.2303 11.2645C30.3904 11.2934 30.5375 11.3648 30.653 11.4697C30.7684 11.5746 30.8471 11.7083 30.8789 11.8537C30.9108 11.9992 30.8944 12.15 30.8319 12.2871C30.7695 12.4241 30.6636 12.5413 30.5279 12.6237C30.3921 12.7061 30.2325 12.7501 30.0692 12.7501C29.8503 12.7501 29.6403 12.8291 29.4855 12.9697C29.3306 13.1104 29.2437 13.3011 29.2437 13.5001V15.0001C29.2437 15.199 29.3306 15.3897 29.4855 15.5304C29.6403 15.671 29.8503 15.7501 30.0692 15.7501C30.2882 15.7501 30.4982 15.671 30.653 15.5304C30.8078 15.3897 30.8948 15.199 30.8948 15.0001V14.1218Z" fill="#333333"/>
<path d="M39.1504 10.5H35.0226C34.8036 10.5 34.5936 10.579 34.4388 10.7197C34.284 10.8603 34.197 11.0511 34.197 11.25C34.197 11.4489 34.284 11.6397 34.4388 11.7803C34.5936 11.921 34.8036 12 35.0226 12H39.1504C39.3694 12 39.5793 11.921 39.7342 11.7803C39.889 11.6397 39.976 11.4489 39.976 11.25C39.976 11.0511 39.889 10.8603 39.7342 10.7197C39.5793 10.579 39.3694 10.5 39.1504 10.5Z" fill="#333333"/>
<path d="M39.1503 13.5H34.1969C33.9779 13.5 33.768 13.579 33.6131 13.7197C33.4583 13.8603 33.3713 14.0511 33.3713 14.25C33.3713 14.4489 33.4583 14.6397 33.6131 14.7803C33.768 14.921 33.9779 15 34.1969 15H39.1503C39.3692 15 39.5792 14.921 39.734 14.7803C39.8889 14.6397 39.9758 14.4489 39.9758 14.25C39.9758 14.0511 39.8889 13.8603 39.734 13.7197C39.5792 13.579 39.3692 13.5 39.1503 13.5Z" fill="#333333"/>
<path d="M33.3717 18H39.1507C39.3696 18 39.5796 17.921 39.7344 17.7803C39.8892 17.6397 39.9762 17.4489 39.9762 17.25C39.9762 17.0511 39.8892 16.8603 39.7344 16.7197C39.5796 16.579 39.3696 16.5 39.1507 16.5H33.3717C33.1528 16.5 32.9428 16.579 32.7879 16.7197C32.6331 16.8603 32.5461 17.0511 32.5461 17.25C32.5461 17.4489 32.6331 17.6397 32.7879 17.7803C32.9428 17.921 33.1528 18 33.3717 18Z" fill="#333333"/>
<path d="M24.2904 18H26.7671C26.9861 18 27.196 17.921 27.3509 17.7803C27.5057 17.6397 27.5927 17.4489 27.5927 17.25C27.5927 17.0511 27.5057 16.8603 27.3509 16.7197C27.196 16.579 26.9861 16.5 26.7671 16.5H24.2904C24.0715 16.5 23.8615 16.579 23.7066 16.7197C23.5518 16.8603 23.4648 17.0511 23.4648 17.25C23.4648 17.4489 23.5518 17.6397 23.7066 17.7803C23.8615 17.921 24.0715 18 24.2904 18Z" fill="#333333"/>
<path d="M24.2904 15H25.9415C26.1605 15 26.3705 14.921 26.5253 14.7803C26.6801 14.6397 26.7671 14.4489 26.7671 14.25C26.7671 14.0511 26.6801 13.8603 26.5253 13.7197C26.3705 13.579 26.1605 13.5 25.9415 13.5H24.2904C24.0715 13.5 23.8615 13.579 23.7066 13.7197C23.5518 13.8603 23.4648 14.0511 23.4648 14.25C23.4648 14.4489 23.5518 14.6397 23.7066 14.7803C23.8615 14.921 24.0715 15 24.2904 15Z" fill="#333333"/>
<path d="M24.2904 12H25.116C25.3349 12 25.5449 11.921 25.6997 11.7803C25.8546 11.6397 25.9415 11.4489 25.9415 11.25C25.9415 11.0511 25.8546 10.8603 25.6997 10.7197C25.5449 10.579 25.3349 10.5 25.116 10.5H24.2904C24.0715 10.5 23.8615 10.579 23.7066 10.7197C23.5518 10.8603 23.4648 11.0511 23.4648 11.25C23.4648 11.4489 23.5518 11.6397 23.7066 11.7803C23.8615 11.921 24.0715 12 24.2904 12Z" fill="#333333"/>
</svg>
