<svg width="39" height="39" viewBox="0 0 39 39" fill="none" xmlns="http://www.w3.org/2000/svg">
<path d="M26.2194 21.0809L22.8997 19.6055C22.6652 19.5013 22.5137 19.2681 22.5137 19.0116V18.0999C23.6289 17.2114 24.3457 15.8431 24.3457 14.3098V13.0265C24.7131 12.8235 24.9563 12.4312 24.9563 11.9919V11.8673C24.9563 9.19551 22.7826 7.02179 20.1107 7.02179H18.8896C16.2177 7.02179 14.044 9.19551 14.044 11.8673V12.9973C14.044 13.3835 14.2102 13.7334 14.4999 13.9573C14.549 13.9952 14.6008 14.0285 14.6546 14.0574V14.3097C14.6546 15.843 15.3713 17.2113 16.4864 18.0998V19.0115C16.4864 19.268 16.3349 19.5012 16.1004 19.6054L12.7807 21.0809C11.6935 21.564 10.991 22.6451 10.991 23.8348V31.4066C10.991 31.7221 11.2468 31.9779 11.5623 31.9779C11.8778 31.9779 12.1335 31.7221 12.1335 31.4066V23.8349C12.1335 23.7687 12.1383 23.7032 12.1451 23.6383L13.6748 25.168C13.9129 25.4061 14.044 25.7226 14.044 26.0594V31.4067C14.044 31.7222 14.2998 31.978 14.6153 31.978C14.9308 31.978 15.1866 31.7222 15.1866 31.4067V26.0594C15.1866 25.4175 14.9367 24.8141 14.4828 24.3601L12.6591 22.5364C12.8234 22.366 13.0206 22.2247 13.2448 22.125L16.5086 20.6744L18.9289 23.0948V31.4066C18.9289 31.7221 19.1847 31.9779 19.5002 31.9779C19.8157 31.9779 20.0715 31.7221 20.0715 31.4066V23.0949L22.4919 20.6745L25.7556 22.125C25.9798 22.2247 26.1769 22.366 26.3412 22.5365L24.5176 24.3601C24.0637 24.8141 23.8138 25.4175 23.8138 26.0594V31.4067C23.8138 31.7222 24.0696 31.978 24.3851 31.978C24.7006 31.978 24.9564 31.7222 24.9564 31.4067V26.0594C24.9564 25.7227 25.0875 25.4061 25.3256 25.168L26.8552 23.6384C26.862 23.7033 26.8668 23.7686 26.8668 23.8348V31.4066C26.8668 31.7221 27.1225 31.9779 27.438 31.9779C27.7535 31.9779 28.0093 31.7221 28.0093 31.4066V23.8349C28.0091 22.6451 27.3066 21.5641 26.2194 21.0809ZM19.5 22.0503L17.3762 19.9265C17.5377 19.6548 17.6289 19.3404 17.6289 19.0116V18.7791C18.205 19.0212 18.8371 19.1553 19.5001 19.1553C20.163 19.1553 20.7951 19.0212 21.3711 18.7792V19.0116C21.3711 19.3405 21.4623 19.6548 21.6238 19.9266L19.5 22.0503ZM19.5001 18.0127C17.4583 18.0127 15.7971 16.3516 15.7971 14.3098V14.0528C16.1536 13.9116 16.5016 13.6867 16.8347 13.3793C17.0665 13.1654 17.081 12.8039 16.867 12.5721C16.653 12.3403 16.2916 12.3257 16.0597 12.5397C15.774 12.8035 15.4885 12.9739 15.2114 13.0462C15.2047 13.048 15.1997 13.0487 15.1962 13.0491C15.1921 13.0411 15.1865 13.0243 15.1865 12.9974V11.8674C15.1865 9.82561 16.8477 8.16445 18.8895 8.16445H20.1107C22.1525 8.16445 23.8136 9.82561 23.8136 11.8674V11.9919C23.8136 12.0104 23.8025 12.0265 23.7879 12.0294C20.3669 12.7051 18.6511 11.4317 18.0722 10.8528C17.849 10.6297 17.4873 10.6297 17.2643 10.8528C17.0412 11.0759 17.0412 11.4376 17.2643 11.6607C19.0383 13.4347 21.627 13.4667 23.203 13.2773V14.3097C23.203 16.3515 21.5419 18.0127 19.5001 18.0127Z" fill="black"/>
<path d="M10.3017 17.9736V16.7522C10.3017 15.2618 9.52714 13.9498 8.36011 13.1948C8.43217 12.9636 8.4698 12.7215 8.4698 12.478C8.4698 11.1529 7.39181 10.0749 6.06672 10.0749C4.74163 10.0749 3.66365 11.153 3.66365 12.478C3.66365 12.7245 3.70097 12.9643 3.77318 13.195C2.60623 13.9499 1.83178 15.2619 1.83178 16.7522V17.9734C1.83178 19.4166 2.55793 20.6928 3.66357 21.4577V22.714C3.66357 22.9618 3.52593 23.1846 3.30434 23.2954L1.32836 24.2833C0.508981 24.6931 0 25.5167 0 26.4328V31.4068C0 31.7223 0.255786 31.9781 0.57129 31.9781C0.886795 31.9781 1.14258 31.7223 1.14258 31.4068V26.6799L2.07325 27.6106C2.31129 27.8487 2.44246 28.1652 2.44246 28.502V31.4068C2.44246 31.7223 2.69824 31.9781 3.01375 31.9781C3.32925 31.9781 3.58504 31.7223 3.58504 31.4068V28.502C3.58504 27.8601 3.33504 27.2566 2.88121 26.8027L1.5859 25.5074C1.57966 25.5012 1.57295 25.4958 1.56655 25.4899C1.64783 25.4181 1.73901 25.3557 1.8394 25.3054L3.81538 24.3175C3.91661 24.2668 4.01084 24.207 4.09866 24.1406L5.49543 25.5374V31.4069C5.49543 31.7224 5.75122 31.9782 6.06672 31.9782C6.38223 31.9782 6.63801 31.7224 6.63801 31.4069V25.5374L8.03485 24.1405C8.12276 24.207 8.2169 24.2668 8.31814 24.3174L8.863 24.5899C8.94503 24.6309 9.03217 24.6503 9.1181 24.6503C9.32765 24.6503 9.52942 24.5345 9.62951 24.3344C9.77066 24.0522 9.65625 23.7091 9.37403 23.568L8.82918 23.2955C8.60752 23.1847 8.46987 22.962 8.46987 22.7143V21.458C9.57551 20.693 10.3017 19.4168 10.3017 17.9736ZM6.06672 11.2175C6.76179 11.2175 7.32722 11.783 7.32722 12.478C7.32722 12.5545 7.32036 12.6295 7.30726 12.7031C6.91467 12.5825 6.49824 12.5173 6.06672 12.5173C5.63582 12.5173 5.21992 12.5823 4.82794 12.7025C4.81476 12.629 4.80623 12.5544 4.80623 12.478C4.80623 11.7829 5.37165 11.2175 6.06672 11.2175ZM6.06672 13.6599C7.77183 13.6599 9.15908 15.0472 9.15908 16.7523V16.9593C6.7806 17.6875 5.36312 15.8782 5.30256 15.7989C5.20316 15.6664 5.0512 15.5836 4.88605 15.5718C4.72091 15.5603 4.55867 15.6207 4.44159 15.7377C3.89628 16.2831 3.36216 16.5461 2.97642 16.6731C3.0187 15.0044 4.38819 13.6599 6.06672 13.6599ZM6.06672 24.4927L4.74658 23.1726C4.78513 23.0253 4.80623 22.8717 4.80623 22.7141V22.0168C5.20453 22.1412 5.62797 22.2083 6.06672 22.2083C6.50547 22.2083 6.92891 22.1412 7.32722 22.0168V22.7141C7.32722 22.8717 7.34831 23.0254 7.38686 23.1726L6.06672 24.4927ZM6.06672 21.0658C4.36161 21.0658 2.97437 19.6785 2.97437 17.9734V17.855C3.42995 17.7504 4.10544 17.5071 4.81011 16.9404C5.05942 17.1756 5.41575 17.4642 5.86951 17.7117C6.40622 18.0044 7.14745 18.2752 8.05283 18.2752C8.3969 18.2752 8.76504 18.2352 9.1542 18.1433C9.06561 19.7698 7.71478 21.0658 6.06672 21.0658Z" fill="black"/>
<path d="M37.6715 23.0623L34.4744 21.4636C34.2528 21.3528 34.1151 21.1301 34.1151 20.8824V20.0727C34.8635 19.4083 35.3363 18.44 35.3363 17.3629V16.7126C35.3495 16.7126 35.3625 16.713 35.3756 16.713C35.6911 16.713 35.9469 16.4572 35.9469 16.1417V14.9205C35.9469 12.9221 34.321 11.2962 32.3226 11.2962H31.1014C29.1029 11.2962 27.4771 12.9221 27.4771 14.9205V16.1417C27.4771 16.4572 27.7328 16.713 28.0483 16.713C28.0531 16.713 28.0668 16.7129 28.0876 16.712V17.3629C28.0876 18.4401 28.5605 19.4084 29.3089 20.0728V20.8825C29.3089 21.1302 29.1713 21.353 28.9496 21.4637C28.6674 21.6048 28.553 21.9479 28.6941 22.2302C28.7942 22.4303 28.996 22.5461 29.2055 22.5461C29.2914 22.5461 29.3785 22.5267 29.4606 22.4857C29.5618 22.4351 29.656 22.3753 29.7439 22.3088L31.1407 23.7057V31.4069C31.1407 31.7224 31.3965 31.9782 31.712 31.9782C32.0275 31.9782 32.2833 31.7224 32.2833 31.4069V23.7055L33.68 22.3087C33.7679 22.3752 33.8621 22.435 33.9633 22.4856L37.0571 24.0325L36.1187 24.9708C35.6649 25.4247 35.4149 26.0282 35.4149 26.6701V31.4068C35.4149 31.7223 35.6706 31.9781 35.9861 31.9781C36.3017 31.9781 36.5574 31.7223 36.5574 31.4068V26.6701C36.5574 26.3334 36.6885 26.0168 36.9266 25.7787L37.8155 24.8899C37.8425 24.9932 37.8572 25.101 37.8572 25.2116V31.4068C37.8572 31.7223 38.113 31.9781 38.4285 31.9781C38.744 31.9781 38.9998 31.7223 38.9998 31.4068V25.2116C38.9999 24.2956 38.4909 23.472 37.6715 23.0623ZM28.6196 15.4529V14.9205H28.6196C28.6196 13.552 29.733 12.4387 31.1014 12.4387H32.3226C33.691 12.4387 34.8043 13.552 34.8043 14.9205V15.5551C32.3209 15.4211 30.8222 14.4547 30.8077 14.4452C30.711 14.3807 30.6007 14.3492 30.4909 14.3492C30.3435 14.3492 30.1972 14.4062 30.0868 14.5165C29.5402 15.0631 29.0046 15.3262 28.6196 15.4529ZM31.712 22.661L30.3918 21.3409C30.4304 21.1935 30.4515 21.04 30.4515 20.8824V20.7607C30.8442 20.9069 31.2689 20.9872 31.712 20.9872C32.1551 20.9872 32.5797 20.9069 32.9725 20.7607V20.8824C32.9725 21.04 32.9935 21.1935 33.0321 21.3409L31.712 22.661ZM31.712 19.8447C30.3436 19.8447 29.2302 18.7314 29.2302 17.3629V16.4419C29.6304 16.282 30.0965 16.0279 30.5709 15.6237C31.1709 15.9358 32.426 16.4754 34.1937 16.6536V17.3629C34.1937 18.7314 33.0804 19.8447 31.712 19.8447Z" fill="black"/>
</svg>
