<svg width="39" height="39" viewBox="0 0 39 39" fill="none" xmlns="http://www.w3.org/2000/svg">
<path fill-rule="evenodd" clip-rule="evenodd" d="M36.4781 16.0769H9.57345L35.4157 9.48869C35.6165 9.43746 35.786 9.3179 35.887 9.15687C35.988 8.99557 36.0121 8.8058 35.9538 8.62904L34.6015 4.52056C34.0612 2.8796 32.3251 1.7334 30.3795 1.7334C29.9694 1.7334 29.561 1.78464 29.1648 1.88548L4.90163 8.07112C3.77942 8.35713 2.84943 9.01373 2.28232 9.91947C1.71552 10.8252 1.58244 11.8681 1.90743 12.8555L3.22864 16.8693V33.4044C3.22864 35.5341 5.19736 37.2667 7.61705 37.2667H23.4019V36.5727C23.4019 36.1894 23.4019 35.8787 23.4019 35.8787H7.61736C6.06697 35.8787 4.80583 34.7688 4.80583 33.4044V23.9599H8.84585H8.84769H8.84923H15.0249H15.0268H15.0286H21.2043H21.2062H21.208H27.3837H27.3856H27.3871H35.6895V33.4044C35.6895 34.7688 34.4284 35.8787 32.878 35.8787H23.4019C23.4019 35.8787 23.4019 36.1894 23.4019 36.5727V37.2667H32.878C35.298 37.2667 37.2667 35.5341 37.2667 33.4044V16.7709C37.2667 16.3876 36.9137 16.0769 36.4781 16.0769ZM22.5727 22.5719L25.9233 17.4649H30.2812L26.9309 22.5719H22.5727ZM16.3933 22.5719L19.7439 17.4649H24.1018L20.7515 22.5719H16.3933ZM10.2142 22.5719L13.5645 17.4649H17.9227L14.5721 22.5719H10.2142ZM13.1462 13.5874L7.53542 8.84484L11.7393 7.77319C11.7689 7.81114 11.8034 7.84693 11.8428 7.88027L17.4536 12.6229L13.2497 13.6945C13.2201 13.6566 13.1853 13.6205 13.1462 13.5874ZM23.7134 4.85401L29.3241 9.59659L25.1202 10.6682C25.0906 10.6303 25.0561 10.5942 25.0167 10.5612L19.406 5.81857L23.6098 4.74692C23.6394 4.78488 23.6739 4.82066 23.7134 4.85401ZM17.7779 6.36727L23.3887 11.1096L19.1848 12.1815C19.1552 12.1436 19.1207 12.1075 19.0813 12.0744L13.4705 7.33184L17.6744 6.26019C17.7043 6.29787 17.7388 6.33393 17.7779 6.36727ZM29.6038 3.21874C29.857 3.15422 30.1179 3.12142 30.3795 3.12142C31.6273 3.12142 32.7403 3.85555 33.0866 4.90687L34.2195 8.34846L31.0556 9.15497C31.0257 9.11702 30.9912 9.08123 30.9518 9.04789L25.3414 4.30557L29.6038 3.21874ZM3.66391 10.5891C4.0274 10.0081 4.62285 9.58737 5.3406 9.40438L5.8039 9.28618C5.83378 9.32414 5.86828 9.36019 5.9074 9.39327L11.5181 14.1359L4.55539 15.911L3.4224 12.4694C3.21447 11.838 3.30041 11.1703 3.66391 10.5891ZM4.80583 17.4649H11.7433L8.39302 22.5719H4.80583V17.4649ZM28.752 22.5719L32.1024 17.4649H35.6895V22.5719H28.752Z" fill="#333333"/>
<path fill-rule="evenodd" clip-rule="evenodd" d="M25.7003 29.8487C25.7003 29.6006 25.5499 29.3715 25.306 29.2476L18.3777 25.7274C18.1337 25.6035 17.8331 25.6035 17.5891 25.7274C17.3452 25.8513 17.1948 26.0804 17.1948 26.3285V33.3689C17.1948 33.6167 17.3452 33.8457 17.5891 33.9696C17.7111 34.0317 17.8473 34.0629 17.9834 34.0629C18.1196 34.0629 18.2557 34.0317 18.3777 33.9696L25.306 30.4497C25.5499 30.3258 25.7003 30.0967 25.7003 29.8487ZM18.772 32.1668V27.5305L23.3345 29.8487L18.772 32.1668Z" fill="#333333"/>
</svg>
